<mxfile host="app.diagrams.net" modified="2023-12-08T05:38:53.862Z" agent="Mozilla/5.0 (Windows NT 10.0; Win64; x64) AppleWebKit/537.36 (KHTML, like Gecko) Chrome/120.0.0.0 Safari/537.36" etag="nlEX5uiJGixpy9hU3EEx" version="22.1.7" type="github">
  <diagram name="Página-1" id="Caj8OM1i9z9v3W6LQoLk">
    <mxGraphModel dx="880" dy="438" grid="1" gridSize="10" guides="1" tooltips="1" connect="1" arrows="1" fold="1" page="1" pageScale="1" pageWidth="827" pageHeight="1169" math="0" shadow="0">
      <root>
        <mxCell id="0" />
        <mxCell id="1" parent="0" />
        <mxCell id="Ti8KJf2Oc6nyAPPUHAU4-31" value="" style="endArrow=classic;html=1;rounded=0;exitX=-0.011;exitY=0.572;exitDx=0;exitDy=0;exitPerimeter=0;entryX=1.098;entryY=0.17;entryDx=0;entryDy=0;entryPerimeter=0;dashed=1;" edge="1" parent="1" source="Ti8KJf2Oc6nyAPPUHAU4-64">
          <mxGeometry width="50" height="50" relative="1" as="geometry">
            <mxPoint x="359.99999999999983" y="780.6896551724135" as="sourcePoint" />
            <mxPoint x="241.40000000000003" y="780.6896551724135" as="targetPoint" />
          </mxGeometry>
        </mxCell>
        <mxCell id="Ti8KJf2Oc6nyAPPUHAU4-2" value="Usuario" style="shape=umlActor;verticalLabelPosition=bottom;verticalAlign=top;html=1;outlineConnect=0;" vertex="1" parent="1">
          <mxGeometry x="42" y="615" width="30" height="60" as="geometry" />
        </mxCell>
        <mxCell id="Ti8KJf2Oc6nyAPPUHAU4-8" value="" style="endArrow=none;html=1;rounded=0;dashed=1;" edge="1" parent="1">
          <mxGeometry width="50" height="50" relative="1" as="geometry">
            <mxPoint x="56.66" y="1140.4133333333332" as="sourcePoint" />
            <mxPoint x="56.66" y="699.58" as="targetPoint" />
          </mxGeometry>
        </mxCell>
        <mxCell id="Ti8KJf2Oc6nyAPPUHAU4-11" value="" style="edgeStyle=orthogonalEdgeStyle;rounded=0;orthogonalLoop=1;jettySize=auto;html=1;endArrow=none;endFill=0;dashed=1;" edge="1" parent="1" source="Ti8KJf2Oc6nyAPPUHAU4-9" target="Ti8KJf2Oc6nyAPPUHAU4-10">
          <mxGeometry relative="1" as="geometry" />
        </mxCell>
        <mxCell id="Ti8KJf2Oc6nyAPPUHAU4-9" value=":Sistema" style="rounded=0;whiteSpace=wrap;html=1;" vertex="1" parent="1">
          <mxGeometry x="190" y="627.5" width="80" height="35" as="geometry" />
        </mxCell>
        <mxCell id="Ti8KJf2Oc6nyAPPUHAU4-10" value="" style="whiteSpace=wrap;html=1;rounded=0;" vertex="1" parent="1">
          <mxGeometry x="220" y="690" width="20" height="460" as="geometry" />
        </mxCell>
        <mxCell id="Ti8KJf2Oc6nyAPPUHAU4-12" value="" style="endArrow=classic;html=1;rounded=0;entryX=0.029;entryY=0.061;entryDx=0;entryDy=0;entryPerimeter=0;" edge="1" parent="1">
          <mxGeometry width="50" height="50" relative="1" as="geometry">
            <mxPoint x="55.42" y="710" as="sourcePoint" />
            <mxPoint x="219.9999999999998" y="710" as="targetPoint" />
          </mxGeometry>
        </mxCell>
        <mxCell id="Ti8KJf2Oc6nyAPPUHAU4-21" value="Encender" style="edgeLabel;html=1;align=center;verticalAlign=middle;resizable=0;points=[];" vertex="1" connectable="0" parent="Ti8KJf2Oc6nyAPPUHAU4-12">
          <mxGeometry x="-0.0726" relative="1" as="geometry">
            <mxPoint as="offset" />
          </mxGeometry>
        </mxCell>
        <mxCell id="Ti8KJf2Oc6nyAPPUHAU4-16" value="" style="edgeStyle=orthogonalEdgeStyle;rounded=0;orthogonalLoop=1;jettySize=auto;html=1;" edge="1" parent="1" source="Ti8KJf2Oc6nyAPPUHAU4-13" target="Ti8KJf2Oc6nyAPPUHAU4-15">
          <mxGeometry relative="1" as="geometry" />
        </mxCell>
        <mxCell id="Ti8KJf2Oc6nyAPPUHAU4-13" value=":Sensor obstáculos" style="rounded=0;whiteSpace=wrap;html=1;" vertex="1" parent="1">
          <mxGeometry x="350" y="627.5" width="80" height="35" as="geometry" />
        </mxCell>
        <mxCell id="Ti8KJf2Oc6nyAPPUHAU4-15" value=":Robot" style="rounded=0;whiteSpace=wrap;html=1;" vertex="1" parent="1">
          <mxGeometry x="510" y="627.5" width="80" height="35" as="geometry" />
        </mxCell>
        <mxCell id="Ti8KJf2Oc6nyAPPUHAU4-18" value="" style="edgeStyle=orthogonalEdgeStyle;rounded=0;orthogonalLoop=1;jettySize=auto;html=1;endArrow=none;endFill=0;dashed=1;" edge="1" parent="1">
          <mxGeometry relative="1" as="geometry">
            <mxPoint x="549.66" y="662.5" as="sourcePoint" />
            <mxPoint x="549.66" y="690.5" as="targetPoint" />
          </mxGeometry>
        </mxCell>
        <mxCell id="Ti8KJf2Oc6nyAPPUHAU4-19" value="" style="edgeStyle=orthogonalEdgeStyle;rounded=0;orthogonalLoop=1;jettySize=auto;html=1;endArrow=none;endFill=0;dashed=1;" edge="1" parent="1">
          <mxGeometry relative="1" as="geometry">
            <mxPoint x="389.66" y="662.5" as="sourcePoint" />
            <mxPoint x="389.66" y="690.5" as="targetPoint" />
          </mxGeometry>
        </mxCell>
        <mxCell id="Ti8KJf2Oc6nyAPPUHAU4-22" value="" style="whiteSpace=wrap;html=1;rounded=0;" vertex="1" parent="1">
          <mxGeometry x="540" y="820" width="20" height="210" as="geometry" />
        </mxCell>
        <mxCell id="Ti8KJf2Oc6nyAPPUHAU4-23" value="" style="whiteSpace=wrap;html=1;rounded=0;" vertex="1" parent="1">
          <mxGeometry x="380" y="690" width="20" height="40" as="geometry" />
        </mxCell>
        <mxCell id="Ti8KJf2Oc6nyAPPUHAU4-25" value="" style="endArrow=classic;html=1;rounded=0;entryX=0;entryY=0.5;entryDx=0;entryDy=0;exitX=-0.109;exitY=0.432;exitDx=0;exitDy=0;exitPerimeter=0;" edge="1" parent="1" target="Ti8KJf2Oc6nyAPPUHAU4-23">
          <mxGeometry width="50" height="50" relative="1" as="geometry">
            <mxPoint x="240" y="710" as="sourcePoint" />
            <mxPoint x="271.96000000000004" y="750.6896551724137" as="targetPoint" />
          </mxGeometry>
        </mxCell>
        <mxCell id="Ti8KJf2Oc6nyAPPUHAU4-26" value="" style="endArrow=classic;html=1;rounded=0;exitX=0.995;exitY=0.329;exitDx=0;exitDy=0;exitPerimeter=0;" edge="1" parent="1">
          <mxGeometry width="50" height="50" relative="1" as="geometry">
            <mxPoint x="400.45" y="710" as="sourcePoint" />
            <mxPoint x="539.55" y="709.9999999999999" as="targetPoint" />
          </mxGeometry>
        </mxCell>
        <mxCell id="Ti8KJf2Oc6nyAPPUHAU4-27" value="Encender" style="edgeLabel;html=1;align=center;verticalAlign=middle;resizable=0;points=[];" vertex="1" connectable="0" parent="1">
          <mxGeometry x="310" y="670" as="geometry">
            <mxPoint y="41" as="offset" />
          </mxGeometry>
        </mxCell>
        <mxCell id="Ti8KJf2Oc6nyAPPUHAU4-28" value="Encender" style="edgeLabel;html=1;align=center;verticalAlign=middle;resizable=0;points=[];" vertex="1" connectable="0" parent="1">
          <mxGeometry x="470" y="710" as="geometry" />
        </mxCell>
        <mxCell id="Ti8KJf2Oc6nyAPPUHAU4-29" value="" style="endArrow=classic;html=1;rounded=0;exitX=1.098;exitY=0.149;exitDx=0;exitDy=0;exitPerimeter=0;entryX=-0.013;entryY=0.208;entryDx=0;entryDy=0;entryPerimeter=0;" edge="1" parent="1" target="Ti8KJf2Oc6nyAPPUHAU4-64">
          <mxGeometry width="50" height="50" relative="1" as="geometry">
            <mxPoint x="241.96000000000004" y="754.56" as="sourcePoint" />
            <mxPoint x="540" y="753.1800000000001" as="targetPoint" />
          </mxGeometry>
        </mxCell>
        <mxCell id="Ti8KJf2Oc6nyAPPUHAU4-30" value="Hacer diagnóstico" style="edgeLabel;html=1;align=center;verticalAlign=middle;resizable=0;points=[];" vertex="1" connectable="0" parent="Ti8KJf2Oc6nyAPPUHAU4-29">
          <mxGeometry x="-0.0512" relative="1" as="geometry">
            <mxPoint x="4" as="offset" />
          </mxGeometry>
        </mxCell>
        <mxCell id="Ti8KJf2Oc6nyAPPUHAU4-38" style="edgeStyle=orthogonalEdgeStyle;rounded=0;orthogonalLoop=1;jettySize=auto;html=1;exitX=-0.016;exitY=0.848;exitDx=0;exitDy=0;exitPerimeter=0;dashed=1;" edge="1" parent="1" source="Ti8KJf2Oc6nyAPPUHAU4-64">
          <mxGeometry relative="1" as="geometry">
            <mxPoint x="361.26" y="799.3599999999999" as="sourcePoint" />
            <mxPoint x="60" y="800" as="targetPoint" />
          </mxGeometry>
        </mxCell>
        <mxCell id="Ti8KJf2Oc6nyAPPUHAU4-39" value="Pedir soporte técnico" style="edgeLabel;html=1;align=center;verticalAlign=middle;resizable=0;points=[];" vertex="1" connectable="0" parent="Ti8KJf2Oc6nyAPPUHAU4-38">
          <mxGeometry x="0.3848" y="1" relative="1" as="geometry">
            <mxPoint as="offset" />
          </mxGeometry>
        </mxCell>
        <mxCell id="Ti8KJf2Oc6nyAPPUHAU4-40" value="" style="endArrow=classic;html=1;rounded=0;exitX=1.098;exitY=0.149;exitDx=0;exitDy=0;exitPerimeter=0;entryX=0;entryY=0.152;entryDx=0;entryDy=0;entryPerimeter=0;" edge="1" parent="1">
          <mxGeometry width="50" height="50" relative="1" as="geometry">
            <mxPoint x="240.98" y="830" as="sourcePoint" />
            <mxPoint x="539.02" y="831.3799999999999" as="targetPoint" />
          </mxGeometry>
        </mxCell>
        <mxCell id="Ti8KJf2Oc6nyAPPUHAU4-41" value="Avanzar a zona de exploración" style="edgeLabel;html=1;align=center;verticalAlign=middle;resizable=0;points=[];" vertex="1" connectable="0" parent="Ti8KJf2Oc6nyAPPUHAU4-40">
          <mxGeometry x="-0.0512" relative="1" as="geometry">
            <mxPoint x="8" as="offset" />
          </mxGeometry>
        </mxCell>
        <mxCell id="Ti8KJf2Oc6nyAPPUHAU4-45" value="Opción" style="shape=umlFrame;whiteSpace=wrap;html=1;pointerEvents=0;" vertex="1" parent="1">
          <mxGeometry x="320" y="885" width="140" height="70" as="geometry" />
        </mxCell>
        <mxCell id="Ti8KJf2Oc6nyAPPUHAU4-46" value="" style="endArrow=none;dashed=1;html=1;rounded=0;entryX=1.007;entryY=0.667;entryDx=0;entryDy=0;entryPerimeter=0;" edge="1" parent="1">
          <mxGeometry width="50" height="50" relative="1" as="geometry">
            <mxPoint x="320" y="930" as="sourcePoint" />
            <mxPoint x="460.98" y="930.03" as="targetPoint" />
          </mxGeometry>
        </mxCell>
        <mxCell id="Ti8KJf2Oc6nyAPPUHAU4-47" value="" style="endArrow=classic;html=1;rounded=0;entryX=0;entryY=0.476;entryDx=0;entryDy=0;entryPerimeter=0;" edge="1" parent="1" target="Ti8KJf2Oc6nyAPPUHAU4-22">
          <mxGeometry width="50" height="50" relative="1" as="geometry">
            <mxPoint x="460" y="919.3299999999999" as="sourcePoint" />
            <mxPoint x="290" y="869.3299999999999" as="targetPoint" />
          </mxGeometry>
        </mxCell>
        <mxCell id="Ti8KJf2Oc6nyAPPUHAU4-53" value="Esquivar" style="edgeLabel;html=1;align=center;verticalAlign=middle;resizable=0;points=[];" vertex="1" connectable="0" parent="Ti8KJf2Oc6nyAPPUHAU4-47">
          <mxGeometry x="-0.1061" relative="1" as="geometry">
            <mxPoint as="offset" />
          </mxGeometry>
        </mxCell>
        <mxCell id="Ti8KJf2Oc6nyAPPUHAU4-49" value="Hay obstáculo" style="text;html=1;align=center;verticalAlign=middle;resizable=0;points=[];autosize=1;strokeColor=none;fillColor=none;" vertex="1" parent="1">
          <mxGeometry x="340" y="905" width="100" height="30" as="geometry" />
        </mxCell>
        <mxCell id="Ti8KJf2Oc6nyAPPUHAU4-52" value="No hay obstáculo" style="text;html=1;align=center;verticalAlign=middle;resizable=0;points=[];autosize=1;strokeColor=none;fillColor=none;" vertex="1" parent="1">
          <mxGeometry x="330" y="930" width="120" height="30" as="geometry" />
        </mxCell>
        <mxCell id="Ti8KJf2Oc6nyAPPUHAU4-56" value="" style="endArrow=classic;html=1;rounded=0;entryX=-0.074;entryY=0.578;entryDx=0;entryDy=0;entryPerimeter=0;" edge="1" parent="1" target="Ti8KJf2Oc6nyAPPUHAU4-22">
          <mxGeometry width="50" height="50" relative="1" as="geometry">
            <mxPoint x="460" y="941.4896551724136" as="sourcePoint" />
            <mxPoint x="540" y="940.8000000000001" as="targetPoint" />
          </mxGeometry>
        </mxCell>
        <mxCell id="Ti8KJf2Oc6nyAPPUHAU4-57" value="Avanzar" style="edgeLabel;html=1;align=center;verticalAlign=middle;resizable=0;points=[];" vertex="1" connectable="0" parent="Ti8KJf2Oc6nyAPPUHAU4-56">
          <mxGeometry x="-0.1061" relative="1" as="geometry">
            <mxPoint as="offset" />
          </mxGeometry>
        </mxCell>
        <mxCell id="Ti8KJf2Oc6nyAPPUHAU4-59" value="" style="whiteSpace=wrap;html=1;rounded=0;" vertex="1" parent="1">
          <mxGeometry x="380" y="840" width="20" height="30" as="geometry" />
        </mxCell>
        <mxCell id="Ti8KJf2Oc6nyAPPUHAU4-60" value="" style="endArrow=classic;html=1;rounded=0;entryX=0;entryY=0.5;entryDx=0;entryDy=0;exitX=-0.109;exitY=0.432;exitDx=0;exitDy=0;exitPerimeter=0;" edge="1" parent="1">
          <mxGeometry width="50" height="50" relative="1" as="geometry">
            <mxPoint x="240" y="854.66" as="sourcePoint" />
            <mxPoint x="380" y="854.66" as="targetPoint" />
          </mxGeometry>
        </mxCell>
        <mxCell id="Ti8KJf2Oc6nyAPPUHAU4-61" value="Detección de obstáculo" style="edgeLabel;html=1;align=center;verticalAlign=middle;resizable=0;points=[];" vertex="1" connectable="0" parent="Ti8KJf2Oc6nyAPPUHAU4-60">
          <mxGeometry x="-0.0458" y="1" relative="1" as="geometry">
            <mxPoint x="3" y="1" as="offset" />
          </mxGeometry>
        </mxCell>
        <mxCell id="Ti8KJf2Oc6nyAPPUHAU4-63" value="" style="whiteSpace=wrap;html=1;rounded=0;" vertex="1" parent="1">
          <mxGeometry x="540" y="690" width="20" height="40" as="geometry" />
        </mxCell>
        <mxCell id="Ti8KJf2Oc6nyAPPUHAU4-64" value="Opción" style="shape=umlFrame;whiteSpace=wrap;html=1;pointerEvents=0;" vertex="1" parent="1">
          <mxGeometry x="380" y="740" width="180" height="70" as="geometry" />
        </mxCell>
        <mxCell id="Ti8KJf2Oc6nyAPPUHAU4-65" value="" style="endArrow=none;dashed=1;html=1;rounded=0;entryX=0.996;entryY=0.71;entryDx=0;entryDy=0;entryPerimeter=0;exitX=0.007;exitY=0.73;exitDx=0;exitDy=0;exitPerimeter=0;" edge="1" parent="1" source="Ti8KJf2Oc6nyAPPUHAU4-64" target="Ti8KJf2Oc6nyAPPUHAU4-64">
          <mxGeometry width="50" height="50" relative="1" as="geometry">
            <mxPoint x="410" y="790" as="sourcePoint" />
            <mxPoint x="550.98" y="790.03" as="targetPoint" />
          </mxGeometry>
        </mxCell>
        <mxCell id="Ti8KJf2Oc6nyAPPUHAU4-66" value="Todo bien" style="text;html=1;align=center;verticalAlign=middle;resizable=0;points=[];autosize=1;strokeColor=none;fillColor=none;" vertex="1" parent="1">
          <mxGeometry x="430" y="768" width="80" height="30" as="geometry" />
        </mxCell>
        <mxCell id="Ti8KJf2Oc6nyAPPUHAU4-67" value="Hay fallas" style="text;html=1;align=center;verticalAlign=middle;resizable=0;points=[];autosize=1;strokeColor=none;fillColor=none;" vertex="1" parent="1">
          <mxGeometry x="430" y="790" width="80" height="30" as="geometry" />
        </mxCell>
        <mxCell id="Ti8KJf2Oc6nyAPPUHAU4-68" value="" style="endArrow=none;dashed=1;html=1;rounded=0;entryX=0.5;entryY=1;entryDx=0;entryDy=0;exitX=0.057;exitY=0.021;exitDx=0;exitDy=0;exitPerimeter=0;" edge="1" parent="1" source="Ti8KJf2Oc6nyAPPUHAU4-64" target="Ti8KJf2Oc6nyAPPUHAU4-23">
          <mxGeometry width="50" height="50" relative="1" as="geometry">
            <mxPoint x="300" y="810" as="sourcePoint" />
            <mxPoint x="350" y="760" as="targetPoint" />
          </mxGeometry>
        </mxCell>
        <mxCell id="Ti8KJf2Oc6nyAPPUHAU4-69" value="" style="endArrow=none;dashed=1;html=1;rounded=0;entryX=0.5;entryY=1;entryDx=0;entryDy=0;exitX=0.057;exitY=0.021;exitDx=0;exitDy=0;exitPerimeter=0;" edge="1" parent="1">
          <mxGeometry width="50" height="50" relative="1" as="geometry">
            <mxPoint x="549.66" y="740" as="sourcePoint" />
            <mxPoint x="549.66" y="729" as="targetPoint" />
          </mxGeometry>
        </mxCell>
        <mxCell id="Ti8KJf2Oc6nyAPPUHAU4-70" value="" style="endArrow=none;dashed=1;html=1;rounded=0;entryX=0.5;entryY=1;entryDx=0;entryDy=0;exitX=0.057;exitY=0.021;exitDx=0;exitDy=0;exitPerimeter=0;" edge="1" parent="1">
          <mxGeometry width="50" height="50" relative="1" as="geometry">
            <mxPoint x="389.66" y="886" as="sourcePoint" />
            <mxPoint x="389.66" y="870" as="targetPoint" />
          </mxGeometry>
        </mxCell>
        <mxCell id="Ti8KJf2Oc6nyAPPUHAU4-71" value="" style="endArrow=none;dashed=1;html=1;strokeWidth=1;rounded=0;exitX=-0.04;exitY=0.138;exitDx=0;exitDy=0;exitPerimeter=0;entryX=0.792;entryY=0.008;entryDx=0;entryDy=0;entryPerimeter=0;" edge="1" parent="1" source="Ti8KJf2Oc6nyAPPUHAU4-22" target="Ti8KJf2Oc6nyAPPUHAU4-45">
          <mxGeometry width="50" height="50" relative="1" as="geometry">
            <mxPoint x="300" y="950" as="sourcePoint" />
            <mxPoint x="410" y="866" as="targetPoint" />
            <Array as="points">
              <mxPoint x="430" y="850" />
            </Array>
          </mxGeometry>
        </mxCell>
        <mxCell id="Ti8KJf2Oc6nyAPPUHAU4-74" value="" style="endArrow=classic;html=1;rounded=0;exitX=0.926;exitY=0.626;exitDx=0;exitDy=0;exitPerimeter=0;entryX=0;entryY=0.75;entryDx=0;entryDy=0;" edge="1" parent="1" source="Ti8KJf2Oc6nyAPPUHAU4-10" target="Ti8KJf2Oc6nyAPPUHAU4-22">
          <mxGeometry width="50" height="50" relative="1" as="geometry">
            <mxPoint x="481.28" y="939.1799999999998" as="sourcePoint" />
            <mxPoint x="431.28" y="989.1799999999998" as="targetPoint" />
          </mxGeometry>
        </mxCell>
        <mxCell id="Ti8KJf2Oc6nyAPPUHAU4-75" value="Escanear entorno" style="edgeLabel;html=1;align=center;verticalAlign=middle;resizable=0;points=[];" vertex="1" connectable="0" parent="Ti8KJf2Oc6nyAPPUHAU4-74">
          <mxGeometry x="-0.0677" y="-2" relative="1" as="geometry">
            <mxPoint x="9" y="-3" as="offset" />
          </mxGeometry>
        </mxCell>
        <mxCell id="Ti8KJf2Oc6nyAPPUHAU4-78" value="" style="endArrow=classic;html=1;rounded=0;exitX=1.133;exitY=0.646;exitDx=0;exitDy=0;exitPerimeter=0;entryX=0;entryY=0.5;entryDx=0;entryDy=0;dashed=1;" edge="1" parent="1">
          <mxGeometry width="50" height="50" relative="1" as="geometry">
            <mxPoint x="538.5" y="1000" as="sourcePoint" />
            <mxPoint x="241.5" y="1002" as="targetPoint" />
          </mxGeometry>
        </mxCell>
        <mxCell id="Ti8KJf2Oc6nyAPPUHAU4-79" value="Guardar información de escaneo" style="edgeLabel;html=1;align=center;verticalAlign=middle;resizable=0;points=[];" vertex="1" connectable="0" parent="Ti8KJf2Oc6nyAPPUHAU4-78">
          <mxGeometry x="-0.0677" y="-2" relative="1" as="geometry">
            <mxPoint x="-10" y="3" as="offset" />
          </mxGeometry>
        </mxCell>
        <mxCell id="Ti8KJf2Oc6nyAPPUHAU4-80" value="Opción" style="shape=umlFrame;whiteSpace=wrap;html=1;pointerEvents=0;" vertex="1" parent="1">
          <mxGeometry x="479.51" y="1060" width="140" height="70" as="geometry" />
        </mxCell>
        <mxCell id="Ti8KJf2Oc6nyAPPUHAU4-81" value="" style="endArrow=none;dashed=1;html=1;rounded=0;entryX=1.007;entryY=0.667;entryDx=0;entryDy=0;entryPerimeter=0;" edge="1" parent="1">
          <mxGeometry width="50" height="50" relative="1" as="geometry">
            <mxPoint x="479.51" y="1105" as="sourcePoint" />
            <mxPoint x="620.49" y="1105.03" as="targetPoint" />
          </mxGeometry>
        </mxCell>
        <mxCell id="Ti8KJf2Oc6nyAPPUHAU4-82" value="Si" style="text;html=1;align=center;verticalAlign=middle;resizable=0;points=[];autosize=1;strokeColor=none;fillColor=none;" vertex="1" parent="1">
          <mxGeometry x="534.51" y="1080" width="30" height="30" as="geometry" />
        </mxCell>
        <mxCell id="Ti8KJf2Oc6nyAPPUHAU4-83" value="No" style="text;html=1;align=center;verticalAlign=middle;resizable=0;points=[];autosize=1;strokeColor=none;fillColor=none;" vertex="1" parent="1">
          <mxGeometry x="529.51" y="1105" width="40" height="30" as="geometry" />
        </mxCell>
        <mxCell id="Ti8KJf2Oc6nyAPPUHAU4-85" value="" style="endArrow=none;dashed=1;html=1;rounded=0;exitX=0.5;exitY=0.011;exitDx=0;exitDy=0;exitPerimeter=0;" edge="1" parent="1" source="Ti8KJf2Oc6nyAPPUHAU4-80">
          <mxGeometry width="50" height="50" relative="1" as="geometry">
            <mxPoint x="549.66" y="1031" as="sourcePoint" />
            <mxPoint x="550" y="1030" as="targetPoint" />
          </mxGeometry>
        </mxCell>
        <mxCell id="Ti8KJf2Oc6nyAPPUHAU4-86" value="" style="endArrow=classic;html=1;rounded=0;exitX=1.236;exitY=0.76;exitDx=0;exitDy=0;exitPerimeter=0;" edge="1" parent="1" source="Ti8KJf2Oc6nyAPPUHAU4-10">
          <mxGeometry width="50" height="50" relative="1" as="geometry">
            <mxPoint x="240" y="1021" as="sourcePoint" />
            <mxPoint x="550" y="1040" as="targetPoint" />
          </mxGeometry>
        </mxCell>
        <mxCell id="Ti8KJf2Oc6nyAPPUHAU4-87" value="LLegó al final de la ruta" style="edgeLabel;html=1;align=center;verticalAlign=middle;resizable=0;points=[];" vertex="1" connectable="0" parent="Ti8KJf2Oc6nyAPPUHAU4-86">
          <mxGeometry x="-0.0677" y="-2" relative="1" as="geometry">
            <mxPoint x="9" y="-3" as="offset" />
          </mxGeometry>
        </mxCell>
        <mxCell id="Ti8KJf2Oc6nyAPPUHAU4-88" value="" style="endArrow=classic;html=1;rounded=0;exitX=1.236;exitY=0.76;exitDx=0;exitDy=0;exitPerimeter=0;dashed=1;" edge="1" parent="1">
          <mxGeometry width="50" height="50" relative="1" as="geometry">
            <mxPoint x="480" y="1094.66" as="sourcePoint" />
            <mxPoint x="240" y="1094.66" as="targetPoint" />
          </mxGeometry>
        </mxCell>
        <mxCell id="Ti8KJf2Oc6nyAPPUHAU4-89" value="Volver" style="edgeLabel;html=1;align=center;verticalAlign=middle;resizable=0;points=[];" vertex="1" connectable="0" parent="Ti8KJf2Oc6nyAPPUHAU4-88">
          <mxGeometry x="-0.0677" y="-2" relative="1" as="geometry">
            <mxPoint x="12" y="2" as="offset" />
          </mxGeometry>
        </mxCell>
        <mxCell id="Ti8KJf2Oc6nyAPPUHAU4-91" value="" style="endArrow=classic;html=1;rounded=0;exitX=1.236;exitY=0.76;exitDx=0;exitDy=0;exitPerimeter=0;dashed=1;" edge="1" parent="1">
          <mxGeometry width="50" height="50" relative="1" as="geometry">
            <mxPoint x="220" y="1094.5" as="sourcePoint" />
            <mxPoint x="60" y="1095" as="targetPoint" />
          </mxGeometry>
        </mxCell>
        <mxCell id="Ti8KJf2Oc6nyAPPUHAU4-92" value="Volver" style="edgeLabel;html=1;align=center;verticalAlign=middle;resizable=0;points=[];" vertex="1" connectable="0" parent="Ti8KJf2Oc6nyAPPUHAU4-91">
          <mxGeometry x="-0.0677" y="-2" relative="1" as="geometry">
            <mxPoint x="12" y="2" as="offset" />
          </mxGeometry>
        </mxCell>
        <mxCell id="Ti8KJf2Oc6nyAPPUHAU4-93" value="" style="endArrow=classic;html=1;rounded=0;entryX=1.004;entryY=0.857;entryDx=0;entryDy=0;entryPerimeter=0;dashed=1;exitX=1.004;exitY=0.857;exitDx=0;exitDy=0;exitPerimeter=0;" edge="1" parent="1" source="Ti8KJf2Oc6nyAPPUHAU4-80">
          <mxGeometry width="50" height="50" relative="1" as="geometry">
            <mxPoint x="390" y="940" as="sourcePoint" />
            <mxPoint x="240" y="810" as="targetPoint" />
            <Array as="points">
              <mxPoint x="680" y="1120" />
              <mxPoint x="680" y="820" />
              <mxPoint x="240" y="810" />
            </Array>
          </mxGeometry>
        </mxCell>
      </root>
    </mxGraphModel>
  </diagram>
</mxfile>
